#!OML:ASF I:\Actors\actors\Patient Classification 1\Patient 1\Session 1\Subject1.ASF
:FULLY-SPECIFIED
:DEGREES
1511
root -0.50725 17.5837 8.05628 4.66789 0.408153 -8.72872
lowerback 1.24412 3.49954 4.8042
upperback -9.25888 5.06895 -0.0180198
thorax -10.1334 2.08381 -3.18035
lowerneck -17.2126 -5.72585 -2.77339
upperneck 21.5979 -9.74709 9.7238
head 10.4201 -3.59897 2.51079
rclavicle -2.70347e-014 1.19271e-014
rhumerus -31.842 58.9654 -91.5716
rradius 107.673
rwrist -20.7652
rhand 19.5446 -42.3937
rfingers 7.12502
rthumb 44.1106 -426.235
lclavicle -2.70347e-014 1.19271e-014
lhumerus -31.639 -36.095 101.262
lradius 105.607
lwrist 21.746
lhand -42.7768 -12.4775
lfingers 7.12502
lthumb -15.6434 16.91
rfemur 0.233902 20.2233 26.1589
rtibia 5.2468
rfoot -14.7528 -22.0829
rtoes -1.48229
lfemur 6.54875 -34.8594 -12.6407
ltibia -2.27988
lfoot -13.3293 43.1802
ltoes 3.49308
1512
root -0.507209 17.5808 8.05965 4.79957 0.670894 -8.75443
lowerback 1.16352 3.43457 4.79459
upperback -9.24748 4.97845 0.0133733
thorax -10.0834 2.04439 -3.12756
lowerneck -17.1607 -5.76145 -2.72528
upperneck 21.2785 -9.735 9.57663
head 10.2818 -3.62078 2.45064
rclavicle 2.78299e-014 -7.15625e-015
rhumerus -36.2294 57.8862 -95.6421
rradius 108.588
rwrist -20.3668
rhand 21.2578 -41.743
rfingers 7.12502
rthumb 45.705 -424.959
lclavicle 2.78299e-014 -7.15625e-015
lhumerus -32.2641 -35.8528 101.396
lradius 105.481
lwrist 21.862
lhand -42.654 -12.2745
lfingers 7.12502
lthumb -15.5251 17.1222
rfemur 0.0110331 19.9844 26.1167
rtibia 5.37756
rfoot -14.8405 -22.079
rtoes -1.44779
lfemur 6.36784 -35.1758 -12.5333
ltibia -2.30737
lfoot -13.4589 43.2664
ltoes 3.83591
1513
root -0.504525 17.5735 8.06214 5.10981 0.901128 -8.7188
lowerback 0.733017 3.30072 4.66404
upperback -9.15629 4.76909 0.134232
thorax -9.75946 1.97257 -2.87504
lowerneck -17.2104 -5.64931 -2.66708
upperneck 20.9313 -9.50801 9.40928
head 10.1367 -3.54254 2.4122
rclavicle 2.127e-014 1.90833e-014
rhumerus -39.0726 56.4542 -98.4197
rradius 109.339
rwrist -20.4998
rhand 20.3554 -41.2604
rfingers 7.12502
rthumb 44.8661 -424.813
lclavicle 2.127e-014 1.90833e-014
lhumerus -32.629 -35.4053 101.39
lradius 105.315
lwrist 21.9381
lhand -42.4598 -11.9927
lfingers 7.12502
lthumb -15.3381 17.4184
rfemur -0.443569 19.7821 25.9144
rtibia 5.54137
rfoot -14.9586 -22.0589
rtoes -1.45089
lfemur 5.8981 -35.4077 -12.3392
ltibia -2.26955
lfoot -13.4154 43.3221
ltoes 3.90895
1514
root -0.506261 17.5709 8.06721 5.36012 1.02886 -8.59693
lowerback 0.190169 3.11372 4.28681
upperback -8.93678 4.47212 0.368208
thorax -9.25607 1.8882 -2.35166
lowerneck -17.3571 -5.4158 -2.64125
upperneck 20.5948 -9.11873 9.3044
head 10.009 -3.38065 2.42336
rclavicle 2.98177e-015 -1.59028e-015
rhumerus -40.5373 54.7124 -99.909
rradius 109.836
rwrist -20.9213
rhand 20.6526 -40.8703
rfingers 7.12502
rthumb 45.1425 -424.314
lclavicle 2.98177e-015 -1.59028e-015
lhumerus -32.8923 -34.7419 101.367
lradius 105.169
lwrist 21.8236
lhand -42.2582 -11.3574
lfingers 7.12502
lthumb -15.1439 18.0685
rfemur -0.72515 19.7736 25.6842
rtibia 5.58334
rfoot -15.0716 -22.1289
rtoes -1.25525
lfemur 5.62567 -35.6892 -12.3492
ltibia -2.29049
lfoot -13.4754 43.4993
ltoes 3.91979
1515
root -0.508955 17.5706 8.07319 5.46953 1.05817 -8.49874
lowerback 0.0445498 2.97483 4.0438
upperback -8.86224 4.27296 0.525579
thorax -9.12716 1.82119 -2.02567
lowerneck -17.3039 -5.21444 -2.54924
upperneck 20.3753 -8.79588 9.14783
head 9.88543 -3.25191 2.40018
rclavicle 1.35174e-014 3.81667e-014
rhumerus -41.4037 53.1431 -100.78
rradius 110.259
rwrist -21.8144
rhand 20.5607 -40.3974
rfingers 7.12502
rthumb 45.0571 -423.874
lclavicle 1.35174e-014 3.81667e-014
lhumerus -33.5952 -34.2627 101.542
lradius 105.028
lwrist 21.7513
lhand -42.0014 -10.7804
lfingers 7.12502
lthumb -14.8965 18.664
rfemur -0.787387 19.8412 25.5569
rtibia 5.52677
rfoot -15.0575 -22.2268
rtoes -1.19005
lfemur 5.61464 -35.9482 -12.4688
ltibia -2.3599
lfoot -13.6382 43.7177
ltoes 4.11141
1516
root -0.511974 17.571 8.08031 5.40083 1.0722 -8.43104
lowerback 0.436144 2.92201 4.04807
upperback -9.01112 4.22866 0.506236
thorax -9.52734 1.78451 -2.07458
lowerneck -17.0094 -5.15048 -2.40875
upperneck 20.3578 -8.70065 8.97876
head 9.8018 -3.22623 2.3373
rclavicle -2.22639e-014 2.22639e-014
rhumerus -42.7577 49.1543 -102.092
rradius 110.438
rwrist -21.4096
rhand 21.9923 -39.8581
rfingers 7.12502
rthumb 46.3863 -422.79
lclavicle -2.22639e-014 2.22639e-014
lhumerus -34.8679 -34.2383 101.941
lradius 104.881
lwrist 22.127
lhand -41.7219 -10.696
lfingers 7.12502
lthumb -14.6272 18.7681
rfemur -0.574743 19.9796 25.5658
rtibia 5.37364
rfoot -15.0083 -22.3966
rtoes -1.20679
lfemur 5.89142 -36.1931 -12.6965
ltibia -2.50372
lfoot -13.7956 43.9263
ltoes 4.39534
1517
root -0.517058 17.5748 8.08881 5.19809 1.12045 -8.40731
lowerback 0.988819 2.88851 4.16681
upperback -9.18681 4.22361 0.435587
thorax -10.0433 1.75072 -2.25479
lowerneck -16.6161 -5.14642 -2.27934
upperneck 20.405 -8.69759 8.82732
head 9.73041 -3.24268 2.27168
rclavicle 4.29375e-014 4.77083e-015
rhumerus -43.2792 47.0264 -102.483
rradius 110.337
rwrist -22.0666
rhand 21.4788 -38.8868
rfingers 7.12502
rthumb 45.9101 -422.019
lclavicle 4.29375e-014 4.77083e-015
lhumerus -36.4938 -34.3474 102.44
lradius 104.864
lwrist 22.4831
lhand -41.4368 -10.9206
lfingers 7.12502
lthumb -14.3525 18.5633
rfemur -0.122076 20.2686 25.7318
rtibia 5.13478
rfoot -15.0702 -22.7262
rtoes -0.922419
lfemur 6.40334 -36.5097 -12.9948
ltibia -2.72177
lfoot -13.9034 44.1642
ltoes 4.60186
1518
root -0.520869 17.577 8.09608 5.12549 1.15248 -8.4537
lowerback 1.16305 2.80023 4.29588
upperback -9.24268 4.1286 0.475161
thorax -10.2132 1.68915 -2.2882
lowerneck -16.3609 -4.96792 -1.87515
upperneck 20.5649 -8.4829 8.47819
head 9.68949 -3.15286 2.12017
rclavicle -4.13472e-014 -7.95139e-015
rhumerus -43.4088 44.4792 -102.467
rradius 110.183
rwrist -22.6073
rhand 21.6863 -38.4633
rfingers 7.12502
rthumb 46.1026 -421.515
lclavicle -4.13472e-014 -7.95139e-015
lhumerus -37.8658 -34.1164 102.741
lradius 104.928
lwrist 22.1414
lhand -40.856 -10.3934
lfingers 7.12502
lthumb -13.7928 19.1293
rfemur 0.150158 20.5831 25.9193
rtibia 4.93363
rfoot -15.1288 -23.0591
rtoes -0.76654
lfemur 6.66904 -36.7114 -13.0656
ltibia -2.87747
lfoot -13.9434 44.3276
ltoes 4.67411
1519
root -0.521323 17.5755 8.1014 5.18627 1.19013 -8.54975
lowerback 0.996424 2.64342 4.39775
upperback -9.17133 3.92564 0.656569
thorax -10.0538 1.59618 -2.12164
lowerneck -16.2302 -4.72083 -1.50765
upperneck 20.5761 -8.12095 8.02826
head 9.60923 -3.01011 1.95667
rclavicle -5.26779e-014 -1.90833e-014
rhumerus -43.2868 42.1449 -102.069
rradius 110.008
rwrist -23.046
rhand 22.6305 -38.299
rfingers 7.12502
rthumb 46.9772 -420.975
lclavicle -5.26779e-014 -1.90833e-014
lhumerus -38.7804 -33.6024 102.943
lradius 104.897
lwrist 21.7316
lhand -40.0744 -9.58719
lfingers 7.12502
lthumb -13.0395 19.9852
rfemur 0.225987 20.8493 26.0801
rtibia 4.76655
rfoot -15.1595 -23.3258
rtoes -0.648315
lfemur 6.63016 -36.7194 -12.8935
ltibia -2.95035
lfoot -13.8668 44.3437
ltoes 4.51079
1520
root -0.518944 17.5747 8.10545 5.27831 1.2687 -8.54548
lowerback 0.820443 2.47946 4.4024
upperback -9.09756 3.70527 0.83344
thorax -9.89148 1.50238 -1.90568
lowerneck -16.1144 -4.48908 -1.35079
upperneck 20.4664 -7.71843 7.59595
head 9.49923 -2.8664 1.83828
rclavicle -3.73715e-014 9.54166e-015
rhumerus -43.2267 40.1865 -101.57
rradius 109.751
rwrist -23.45
rhand 23.925 -38.2765
rfingers 7.12502
rthumb 48.1724 -420.409
lclavicle -3.73715e-014 9.54166e-015
lhumerus -39.7299 -33.1288 103.368
lradius 104.769
lwrist 21.7804
lhand -39.4492 -9.7203
lfingers 7.12502
lthumb -12.4368 19.8897
rfemur 0.274153 21.0698 26.0951
rtibia 4.56927
rfoot -15.2158 -23.5923
rtoes -0.283908
lfemur 6.46397 -36.667 -12.7944
ltibia -2.93321
lfoot -13.6627 44.2549
ltoes 4.13056
1521
root -0.513383 17.5748 8.10973 5.41111 1.42133 -8.36969
lowerback 0.686719 2.321 4.36347
upperback -9.08334 3.48499 0.891011
thorax -9.81456 1.40289 -1.79735
lowerneck -15.9448 -4.26278 -1.07512
upperneck 20.3662 -7.35138 7.14215
head 9.38245 -2.73245 1.68877
rclavicle -5.48646e-014 -3.33958e-014
rhumerus -43.4964 38.4222 -101.295
rradius 109.463
rwrist -23.824
rhand 24.2302 -38.3416
rfingers 7.12502
rthumb 48.4535 -420.34
lclavicle -5.48646e-014 -3.33958e-014
lhumerus -40.845 -32.7427 103.899
lradius 104.558
lwrist 21.7025
lhand -38.8906 -9.98784
lfingers 7.12502
lthumb -11.8981 19.6541
rfemur 0.281256 21.2046 25.8717
rtibia 4.35981
rfoot -15.2352 -23.9015
rtoes -0.214717
lfemur 6.16954 -36.6166 -12.8594
ltibia -2.82256
lfoot -13.4441 44.0754
ltoes 3.72722
1522
root -0.50078 17.5731 8.1123 5.447 1.57157 -8.22571
lowerback 0.694168 2.15228 4.54411
upperback -9.05022 3.26885 0.912961
thorax -9.78845 1.28403 -1.85553
lowerneck -15.7202 -3.92887 -0.657369
upperneck 20.2587 -6.87336 6.70515
head 9.24798 -2.53432 1.53679
rclavicle 1.86858e-014 5.56597e-015
rhumerus -44.0751 37.0599 -101.218
rradius 109.212
rwrist -23.9425
rhand 22.8738 -38.2024
rfingers 7.12502
rthumb 47.2022 -420.779
lclavicle 1.86858e-014 5.56597e-015
lhumerus -42.0055 -32.3038 104.376
lradius 104.282
lwrist 21.2349
lhand -38.2677 -9.91893
lfingers 7.12502
lthumb -11.2975 19.7568
rfemur 0.319869 21.1409 25.6526
rtibia 4.22747
rfoot -15.186 -24.0397
rtoes -0.43555
lfemur 5.98238 -36.563 -12.9873
ltibia -2.6965
lfoot -13.3825 43.8928
ltoes 3.57827
1523
root -0.491283 17.5715 8.11504 5.39849 1.50464 -8.15856
lowerback 0.822935 2.02688 4.71811
upperback -9.008 3.12274 0.994824
thorax -9.82531 1.20109 -1.85732
lowerneck -15.2961 -3.62777 -0.492513
upperneck 19.8088 -6.39258 6.46033
head 8.9787 -2.34751 1.49368
rclavicle -1.98785e-015 3.02153e-014
rhumerus -44.8126 36.1485 -101.24
rradius 108.801
rwrist -23.4234
rhand 21.4954 -37.7951
rfingers 7.12502
rthumb 45.9255 -420.921
lclavicle -1.98785e-015 3.02153e-014
lhumerus -43.269 -31.721 104.874
lradius 103.897
lwrist 20.4566
lhand -37.6402 -10.1059
lfingers 7.12502
lthumb -10.6923 19.602
rfemur 0.405245 21.1434 25.5498
rtibia 4.16998
rfoot -15.1872 -24.0001
rtoes -0.310621
lfemur 6.03495 -36.4571 -13.1507
ltibia -2.64217
lfoot -13.4813 43.8361
ltoes 3.73138
1524
root -0.494776 17.5693 8.12301 5.45927 1.31832 -8.0715
lowerback 0.813215 1.94124 4.64111
upperback -9.00065 3.01061 1.11385
thorax -9.82811 1.15799 -1.67791
lowerneck -14.808 -3.2012 -0.31621
upperneck 19.3642 -5.73129 6.17083
head 8.69521 -2.07848 1.45457
rclavicle 1.42131e-014 1.11319e-014
rhumerus -45.6501 35.4106 -101.297
rradius 108.151
rwrist -22.206
rhand 20.8519 -37.2753
rfingers 7.12502
rthumb 45.3278 -420.645
lclavicle 1.42131e-014 1.11319e-014
lhumerus -44.5845 -31.0824 105.402
lradius 103.353
lwrist 19.5456
lhand -37.0965 -10.3064
lfingers 7.12502
lthumb -10.1677 19.4279
rfemur 0.445824 21.5642 25.5007
rtibia 4.10444
rfoot -15.313 -24.1954
rtoes 0.0985224
lfemur 6.07619 -36.2876 -13.2263
ltibia -2.71425
lfoot -13.5533 43.827
ltoes 3.90927
